<?xml version="1.0" encoding="UTF-8"?>
<svg version="1.1" xmlns="http://www.w3.org/2000/svg" width="235" height="233">
<path d="M0 0 C1.80876212 -0.00135132 3.61752389 -0.00329571 5.42628479 -0.00579834 C9.19739273 -0.00872842 12.96840521 -0.00452118 16.73950195 0.00488281 C21.53459763 0.01626776 26.32946909 0.00971033 31.12455654 -0.00226212 C34.85412739 -0.0095453 38.58364652 -0.00716326 42.31321907 -0.00200653 C44.07957042 -0.00068739 45.8459267 -0.00225567 47.61227226 -0.00696564 C65.27670599 -0.04374336 82.81760167 0.40044944 97.06640625 12.265625 C107.17240066 22.49145333 109.18094465 34.87427057 109.17970276 48.68885803 C109.17454147 49.56110519 109.16938019 50.43335236 109.1640625 51.33203125 C109.16194008 52.71128029 109.16194008 52.71128029 109.15977478 54.11839294 C109.15422937 57.02167171 109.14168742 59.92487001 109.12890625 62.828125 C109.12388418 64.81054575 109.11932252 66.79296773 109.11523438 68.77539062 C109.10427789 73.6054992 109.08705167 78.43554851 109.06640625 83.265625 C109.97350342 83.64980591 109.97350342 83.64980591 110.89892578 84.04174805 C112.0994458 84.56055542 112.0994458 84.56055542 113.32421875 85.08984375 C114.1145752 85.42846436 114.90493164 85.76708496 115.71923828 86.1159668 C121.48755074 88.94132392 124.95042317 92.33517414 127.42766571 98.2916069 C128.47150072 101.51756341 128.46761273 104.71958379 128.42285156 108.07080078 C128.42489594 108.81837646 128.42694031 109.56595215 128.42904663 110.33618164 C128.43204001 112.79468739 128.41359579 115.25251183 128.39453125 117.7109375 C128.39146613 119.44424271 128.38959574 121.1775504 128.38885498 122.91085815 C128.38425808 126.54727609 128.36987401 130.18347186 128.34765625 133.81982422 C128.31966678 138.41774836 128.30859264 143.01549814 128.30379486 147.61349869 C128.29169358 158.49851278 128.21397059 169.38161081 128.06640625 180.265625 C128.04332397 182.09522766 128.04332397 182.09522766 128.01977539 183.96179199 C127.97176388 186.91604851 127.89579642 189.86724789 127.80078125 192.8203125 C127.78111298 193.98725143 127.78111298 193.98725143 127.76104736 195.17776489 C127.52609898 200.54811173 126.00872773 204.82108926 123.06640625 209.265625 C117.8951513 213.3761097 112.37284163 213.3908024 105.97140503 213.39933777 C105.26843957 213.40160333 104.56547411 213.40386888 103.84120667 213.40620309 C101.49161444 213.41252028 99.14208024 213.41171518 96.79248047 213.41088867 C95.10517808 213.41388168 93.41787637 213.41728454 91.73057556 213.42106628 C87.14969698 213.42989844 82.56883708 213.43224414 77.9879508 213.43288207 C75.12291743 213.4335933 72.25788879 213.43572905 69.3928566 213.43837929 C59.38852894 213.44763182 49.38421461 213.4517145 39.37988281 213.45092773 C30.0704109 213.45032774 20.76099709 213.46086433 11.45153987 213.4766714 C3.44793358 213.48977438 -4.55565381 213.49511044 -12.55927074 213.49447232 C-17.33436619 213.49421804 -22.10941006 213.49703024 -26.88449478 213.50765038 C-31.38083757 213.51737722 -35.87707998 213.51737926 -40.37342644 213.51013374 C-42.0168453 213.50909341 -43.66027056 213.51141775 -45.30367851 213.5174942 C-68.28380181 213.5969066 -68.28380181 213.5969066 -72.88969612 209.54465008 C-83.0218462 197.45925782 -81.10338305 179.97037839 -81.13671875 165.2265625 C-81.13954613 164.37631123 -81.1423735 163.52605995 -81.14528656 162.65004349 C-81.16017774 158.15927073 -81.1694734 153.66852933 -81.17382812 149.17773438 C-81.17932971 144.56364022 -81.20342201 139.94983859 -81.23180008 135.33583641 C-81.250484 131.76174079 -81.25563489 128.1877153 -81.257164 124.61357498 C-81.26017287 122.91285205 -81.26814105 121.21212984 -81.28134918 119.51145554 C-81.43529376 98.18656555 -81.43529376 98.18656555 -73.93359375 89.265625 C-69.8736962 86.10141619 -67.17362221 84.265625 -61.93359375 84.265625 C-61.94144897 82.85422241 -61.94144897 82.85422241 -61.94946289 81.41430664 C-62.22019913 25.42673734 -62.22019913 25.42673734 -50.93359375 13.265625 C-50.18142578 12.45158203 -50.18142578 12.45158203 -49.4140625 11.62109375 C-36.38056719 -0.90501488 -16.81871007 -0.04478746 0 0 Z " fill="#E4EEEF" transform="translate(92.93359375,4.734375)"/>
<path d="M0 0 C10.22962963 3.40987654 10.22962963 3.40987654 13.375 6.25 C14.00148437 6.79140625 14.62796875 7.3328125 15.2734375 7.890625 C19.50388138 13.05904059 20.44352672 18.28549052 20.35644531 24.80517578 C20.35848969 25.55275146 20.36053406 26.30032715 20.36264038 27.07055664 C20.36563376 29.52906239 20.34718954 31.98688683 20.328125 34.4453125 C20.32505988 36.17861771 20.32318949 37.9119254 20.32244873 39.64523315 C20.31785183 43.28165109 20.30346776 46.91784686 20.28125 50.55419922 C20.25326053 55.15212336 20.24218639 59.74987314 20.23738861 64.34787369 C20.22528733 75.23288778 20.14756434 86.11598581 20 97 C19.97691772 98.82960266 19.97691772 98.82960266 19.95336914 100.69616699 C19.90535763 103.65042351 19.82939017 106.60162289 19.734375 109.5546875 C19.71470673 110.72162643 19.71470673 110.72162643 19.69464111 111.91213989 C19.45969273 117.28248673 17.94232148 121.55546426 15 126 C9.81944317 130.11787851 4.29044864 130.12506802 -2.12191772 130.12698364 C-2.82770545 130.12854363 -3.53349317 130.13010362 -4.2606684 130.13171089 C-6.61960111 130.13569132 -8.97846918 130.13254268 -11.33740234 130.12939453 C-13.03119443 130.13074991 -14.72498623 130.13253061 -16.41877747 130.13470459 C-21.01591957 130.13926339 -25.61303922 130.13749554 -30.21018171 130.1343255 C-35.02355478 130.13179307 -39.83692593 130.13414199 -44.65029907 130.13571167 C-52.73561955 130.13753113 -60.8209309 130.13513327 -68.90625 130.13037109 C-78.24759478 130.12493258 -87.58891772 130.12668905 -96.93026197 130.1321975 C-104.95418687 130.13673937 -112.9781052 130.1373738 -121.00203097 130.13475883 C-125.79263137 130.13320151 -130.58322152 130.13298731 -135.37382126 130.13629532 C-139.87997901 130.13918949 -144.38610869 130.1371699 -148.89226341 130.13140106 C-150.54381069 130.1300816 -152.19536034 130.13045373 -153.84690666 130.13266373 C-156.10600773 130.13540737 -158.36501957 130.13195491 -160.62411499 130.12698364 C-161.88692984 130.12660662 -163.14974468 130.12622959 -164.45082664 130.12584114 C-168.03169047 129.99887637 -171.46523017 129.57233537 -175 129 C-174.34 128.67 -173.68 128.34 -173 128 C-173 127.34 -173 126.68 -173 126 C-172.31035156 125.63648438 -171.62070313 125.27296875 -170.91015625 124.8984375 C-169.97042969 124.39570313 -169.03070313 123.89296875 -168.0625 123.375 C-167.14597656 122.88773437 -166.22945312 122.40046875 -165.28515625 121.8984375 C-162.70901518 120.40972815 -160.30463226 118.86527343 -157.85546875 117.1875 C-152.53017904 113.59642743 -146.92286345 110.62492969 -141.25 107.625 C-133.84008466 103.66084317 -126.58531856 99.61909811 -119.48046875 95.1328125 C-108.85076613 88.5186322 -97.73326776 82.63685279 -86.80078125 76.54296875 C-75.43138093 70.20196438 -64.12273862 63.77683091 -52.89453125 57.1887207 C-45.04126542 52.58719776 -37.13036371 48.09509377 -29.19360352 43.6394043 C-22.47345072 39.8587696 -15.81452128 35.98564525 -9.22485352 31.98144531 C-6.07979225 30.09624427 -3.59766027 28.89941507 0 28 C0 18.76 0 9.52 0 0 Z " fill="#21AAA5" transform="translate(201,88)"/>
<path d="M0 0 C0 8.91 0 17.82 0 27 C1.65 27.33 3.3 27.66 5 28 C5.66 28.33 6.32 28.66 7 29 C7 29.66 7 30.32 7 31 C8.11375 31.0825 9.2275 31.165 10.375 31.25 C11.57125 31.4975 12.7675 31.745 14 32 C14.66666667 33.33333333 15.33333333 34.66666667 16 36 C18.32495277 36.38749213 20.6599583 36.71758117 23 37 C25.4375 38.4375 25.4375 38.4375 27 40 C27 40.66 27 41.32 27 42 C28.65 42.33 30.3 42.66 32 43 C32 43.66 32 44.32 32 45 C32.71929687 45.11472656 33.43859375 45.22945312 34.1796875 45.34765625 C37.12961531 46.02998027 39.43855229 47.05319896 42.125 48.4375 C42.97320312 48.86933594 43.82140625 49.30117187 44.6953125 49.74609375 C47 51 47 51 50 53 C50 53.66 50 54.32 50 55 C50.69609375 55.09667969 51.3921875 55.19335938 52.109375 55.29296875 C55.55053891 56.13465884 58.1658349 57.57300108 61.25 59.3125 C66.40260228 62.16137908 71.56540274 64.7390952 77 67 C77 67.99 77 68.98 77 70 C77.928125 70.103125 78.85625 70.20625 79.8125 70.3125 C83.14965236 71.03227796 83.83186532 71.57142872 86 74 C85.39639648 74.32685791 84.79279297 74.65371582 84.17089844 74.99047852 C72.77467446 81.16759687 61.42419045 87.37031464 50.29492188 94.01855469 C48.34426351 95.18212344 46.39149107 96.3420364 44.4375 97.5 C43.74736816 97.90919678 43.05723633 98.31839355 42.34619141 98.73999023 C37.68996615 101.47813628 32.98933795 104.12450027 28.2578125 106.73046875 C27.37099541 107.21913925 27.37099541 107.21913925 26.46626282 107.71768188 C23.52080049 109.33949125 20.57182881 110.95395674 17.61694336 112.55859375 C11.44869658 115.94306153 5.64620115 119.49176859 0.02124023 123.72583008 C-2 125 -2 125 -5 125 C-5 125.66 -5 126.32 -5 127 C-8 128 -8 128 -10.4375 126.9375 C-16.55521542 122.31191029 -19.218147 115.15900794 -20.33978271 107.75796509 C-21.18218213 98.8357211 -21.18288259 89.91381465 -21.203125 80.9609375 C-21.20595238 80.11068623 -21.20877975 79.26043495 -21.21169281 78.38441849 C-21.22658399 73.89364573 -21.23587965 69.40290433 -21.24023438 64.91210938 C-21.24573596 60.29801522 -21.26982826 55.68421359 -21.29820633 51.07021141 C-21.31689025 47.49611579 -21.32204114 43.9220903 -21.32357025 40.34794998 C-21.32657912 38.64722705 -21.3345473 36.94650484 -21.34775543 35.24583054 C-21.50170001 13.92094055 -21.50170001 13.92094055 -14 5 C-9.04385666 0.98838933 -6.63221269 0 0 0 Z " fill="#82DEC2" transform="translate(33,89)"/>
<path d="M0 0 C1.31573624 0.728989 2.6100549 1.49855853 3.875 2.3125 C4.50664062 2.67472656 5.13828125 3.03695312 5.7890625 3.41015625 C11.43558512 6.95425023 14.78305206 12.03665617 16.875 18.3125 C17.64830759 27.02444628 18.12869234 34.41220896 12.67578125 41.7109375 C9.44671763 44.58277282 6.02237001 45.59600878 1.75 45.5625 C-2.125 45.3125 -2.125 45.3125 -5.125 43.3125 C-7.75934254 43.63376128 -9.75210097 44.12605048 -12.125 45.3125 C-18.07380106 45.95363954 -23.29401864 46.48709182 -28.4375 43.1875 C-31.65065757 37.97697421 -30.95261373 31.11903795 -30.125 25.3125 C-28.13846624 19.95291301 -25.29816651 16.79532347 -20.125 14.3125 C-17.00390625 13.984375 -17.00390625 13.984375 -13.6875 14.0625 C-12.59566406 14.07796875 -11.50382812 14.0934375 -10.37890625 14.109375 C-7.2321663 14.30581015 -4.22206609 14.73325989 -1.125 15.3125 C-0.45046899 22.99733539 0.0317564 30.59660183 -0.125 38.3125 C2.515 37.9825 5.155 37.6525 7.875 37.3125 C7.95615993 34.24946422 8.01557409 31.18859185 8.0625 28.125 C8.08763672 27.26068359 8.11277344 26.39636719 8.13867188 25.50585938 C8.19513603 20.59347782 8.09343276 17.29319315 4.875 13.3125 C2.58963073 11.11745512 2.58963073 11.11745512 -0.125 9.3125 C-0.95 8.735 -1.775 8.1575 -2.625 7.5625 C-9.6807297 5.04259653 -18.43349458 5.09346585 -25.34765625 8.20703125 C-30.20034449 11.22529669 -34.72420875 15.63788482 -36.68359375 21.109375 C-38.36690513 29.51103532 -37.87716448 37.33676729 -34.09765625 45.03125 C-30.2071939 49.53031934 -26.04742169 52.85857664 -20.05053711 53.79003906 C-16.70127932 53.90095653 -13.40993749 53.83816366 -10.0625 53.6875 C-8.91072266 53.66042969 -7.75894531 53.63335937 -6.57226562 53.60546875 C-3.75451317 53.53531724 -0.94078211 53.43707799 1.875 53.3125 C1.875 55.2925 1.875 57.2725 1.875 59.3125 C-8.05820112 62.71816895 -18.87270062 64.79463542 -28.6875 60.0625 C-30.18804595 59.18126584 -31.67112665 58.26877616 -33.125 57.3125 C-34.0325 56.735 -34.94 56.1575 -35.875 55.5625 C-42.08196342 49.35553658 -46.31791219 42.21109065 -46.50585938 33.33569336 C-46.4793637 23.33909775 -45.57194857 15.77650747 -38.625 8.0625 C-28.04436932 -1.48918861 -13.66774278 -5.67737008 0 0 Z " fill="#389F79" transform="translate(135.125,40.6875)"/>
<path d="M0 0 C1.09183594 0.01546875 2.18367188 0.0309375 3.30859375 0.046875 C6.4553337 0.24331015 9.46543391 0.67075989 12.5625 1.25 C13.23703101 8.93483539 13.7192564 16.53410183 13.5625 24.25 C11.5625 23.25 11.5625 23.25 10.5625 20.25 C8.91694301 21.47809091 8.91694301 21.47809091 7.5625 23.25 C7.63856836 25.38803054 7.63856836 25.38803054 8.5625 27.25 C9.2225 27.58 9.8825 27.91 10.5625 28.25 C8.25277779 29.4048611 6.08732667 29.74503467 3.5625 30.25 C2.9025 30.58 2.2425 30.91 1.5625 31.25 C-4.38630106 31.89113954 -9.60651864 32.42459182 -14.75 29.125 C-17.96315757 23.91447421 -17.26511373 17.05653795 -16.4375 11.25 C-13.52343878 3.38798177 -8.4209047 -0.19837231 0 0 Z " fill="#43A07F" transform="translate(121.4375,54.75)"/>
<path d="M0 0 C10.22962963 3.40987654 10.22962963 3.40987654 13.375 6.25 C14.00148437 6.79140625 14.62796875 7.3328125 15.2734375 7.890625 C19.50388138 13.05904059 20.44352672 18.28549052 20.35644531 24.80517578 C20.35951187 25.92653931 20.35951187 25.92653931 20.36264038 27.07055664 C20.36563376 29.52906239 20.34718954 31.98688683 20.328125 34.4453125 C20.32505988 36.17861771 20.32318949 37.9119254 20.32244873 39.64523315 C20.31785183 43.28165109 20.30346776 46.91784686 20.28125 50.55419922 C20.25326078 55.15208282 20.24214469 59.74979137 20.23744965 64.34775162 C20.21714649 82.24856358 20.18852999 100.13058976 19 118 C18.67 118 18.34 118 18 118 C17.06519987 105.23507184 16.92530544 92.50269581 16.97265625 79.7109375 C16.97533886 78.89333199 16.97802147 78.07572647 16.98078537 77.23334503 C17.00724307 69.52072985 17.04661205 61.80820455 17.09594727 54.09570312 C17.12264671 49.83868629 17.13972972 45.58171926 17.15081596 41.32463455 C17.1570203 39.71302015 17.16701882 38.1014157 17.18089485 36.48984909 C17.20000582 34.25797708 17.20698931 32.02637608 17.21118164 29.79443359 C17.21863907 28.52683197 17.2260965 27.25923035 17.23377991 25.95321655 C17.31192817 22.8791943 17.31192817 22.8791943 15 21 C14.40832031 21.3609375 13.81664062 21.721875 13.20703125 22.09375 C12.41683594 22.5578125 11.62664062 23.021875 10.8125 23.5 C10.03519531 23.9640625 9.25789062 24.428125 8.45703125 24.90625 C5.75896614 26.10729647 3.9193018 26.20741043 1 26 C0.67 26.66 0.34 27.32 0 28 C0 18.76 0 9.52 0 0 Z " fill="#2FBF97" transform="translate(201,88)"/>
<path d="M0 0 C0 8.25 0 16.5 0 25 C-5.17317757 24.13780374 -7.15059773 23.62724028 -11.3125 21 C-12.17488281 20.46375 -13.03726562 19.9275 -13.92578125 19.375 C-16 18 -16 18 -17 17 C-17.42780715 13.32085854 -17.14025011 11.28634398 -15.5 7.9375 C-10.96946422 2.61412046 -7.05560378 0 0 0 Z " fill="#39C398" transform="translate(32,89)"/>
<path d="M0 0 C2.58215672 2.58215672 2.29794465 3.72703127 2.3125 7.3125 C2.23241747 11.68271806 1.96843855 14.59179278 -1 18 C-4.70415293 20.46943529 -6.62144505 20.46913089 -11 20 C-13.29722773 17.75594884 -13.94983244 16.30769439 -14.46875 13.125 C-14.55216285 4.78371501 -14.55216285 4.78371501 -12.0625 1.25 C-8.02952752 -0.39611122 -4.30676561 -0.7276657 0 0 Z " fill="#DEEEEC" transform="translate(126,61)"/>
<path d="M0 0 C2.40290313 3.60435469 2.27611756 6.19048246 2.24291992 10.35107422 C2.24481827 11.0980658 2.24671661 11.84505737 2.24867249 12.61468506 C2.25238726 15.09479153 2.24164846 17.57460678 2.23046875 20.0546875 C2.22927497 21.793711 2.22882421 23.53273515 2.2290802 25.27175903 C2.22751302 28.93202716 2.21921895 32.59219784 2.20581055 36.25244141 C2.18904471 40.88182124 2.18507249 45.51109266 2.18563652 50.14049911 C2.18444186 86.4255542 2.18444186 86.4255542 1 104 C0.67 104 0.34 104 0 104 C-0.92385486 91.2485346 -1.08640166 78.52436217 -1.0625 65.74609375 C-1.06105988 64.92973072 -1.05961975 64.11336769 -1.05813599 63.27226639 C-1.04583749 57.32731546 -1.02375283 51.38241451 -1 45.4375 C-0.97630607 39.43150765 -0.95603497 33.42553982 -0.94406128 27.4195118 C-0.93760149 25.03358055 -0.92511413 22.6477302 -0.91235352 20.26182556 C-0.90872413 18.81053741 -0.90537201 17.35924852 -0.90234375 15.90795898 C-0.89710693 14.64257797 -0.89187012 13.37719696 -0.88647461 12.07347107 C-0.85735773 8.95960274 -0.85735773 8.95960274 -2 6 C-1.0625 2.8125 -1.0625 2.8125 0 0 Z " fill="#3D9E95" transform="translate(219,102)"/>
<path d="M0 0 C0.33 0 0.66 0 1 0 C1.99640721 5.72934145 2.07968356 11.18310013 2 17 C5.3 17.99 8.6 18.98 12 20 C12 20.66 12 21.32 12 22 C1.00660905 22.77783427 1.00660905 22.77783427 -2.75 19.875 C-4.15554674 16.64224251 -4.39645927 14.48884162 -4 11 C-3.67 10.67 -3.34 10.34 -3 10 C-2.7746669 7.9720021 -2.55232815 5.94325126 -2.37890625 3.91015625 C-2 2 -2 2 0 0 Z M12 19 C14 20 14 20 14 20 Z " fill="#339F77" transform="translate(109,63)"/>
<path d="M0 0 C0.66 0 1.32 0 2 0 C2.02578125 0.80824219 2.0515625 1.61648437 2.078125 2.44921875 C2.13484375 3.51785156 2.1915625 4.58648437 2.25 5.6875 C2.29640625 6.74324219 2.3428125 7.79898438 2.390625 8.88671875 C3.13714409 12.70066563 4.1156655 14.3969477 7 17 C10.1632145 17.67790142 10.1632145 17.67790142 13.5625 17.4375 C15.26599609 17.40462891 15.26599609 17.40462891 17.00390625 17.37109375 C20.17770985 17.20523986 20.17770985 17.20523986 23 15 C25.6875 15.375 25.6875 15.375 28 16 C27.67 16.66 27.34 17.32 27 18 C25.02 18 23.04 18 21 18 C21 18.66 21 19.32 21 20 C15.47032059 20.71033431 10.50016964 21.30267176 5 20 C5.33 20.99 5.66 21.98 6 23 C5.34 23.33 4.68 23.66 4 24 C-1.875 19.375 -1.875 19.375 -3 16 C-2.34 16 -1.68 16 -1 16 C-1 16.66 -1 17.32 -1 18 C-0.01 18 0.98 18 2 18 C1.505 16.6078125 1.505 16.6078125 1 15.1875 C-0.45989695 10.19095127 -0.16784802 5.1566642 0 0 Z " fill="#C9E9E0" transform="translate(103,68)"/>
<path d="M0 0 C3 0 3 0 5 1 C5.02715383 2.74991334 5.04646551 4.49994945 5.0625 6.25 C5.07410156 7.22453125 5.08570313 8.1990625 5.09765625 9.203125 C5.01195577 11.65758678 4.70706066 13.66168914 4 16 C2.02 16 0.04 16 -2 16 C-2.05384521 13.70858714 -2.09272087 11.41681812 -2.125 9.125 C-2.14820313 7.84882812 -2.17140625 6.57265625 -2.1953125 5.2578125 C-2 2 -2 2 0 0 Z " fill="#E7EEEF" transform="translate(138,61)"/>
<path d="M0 0 C1.32 0 2.64 0 4 0 C4.05418326 2.08304538 4.09287551 4.16649768 4.125 6.25 C4.14820313 7.41015625 4.17140625 8.5703125 4.1953125 9.765625 C4.00892712 12.85216691 3.78936323 14.51148161 2 17 C1.01 17.33 0.02 17.66 -1 18 C-2.48520725 15.02958551 -2.1705822 12.30235553 -2.1875 9 C-2.20167969 7.741875 -2.21585938 6.48375 -2.23046875 5.1875 C-2 2 -2 2 0 0 Z " fill="#319F76" transform="translate(147,61)"/>
<path d="M0 0 C0.99 0.33 1.98 0.66 3 1 C3.10852923 3.87602455 3.1875515 6.74790832 3.25 9.625 C3.30027344 10.83736328 3.30027344 10.83736328 3.3515625 12.07421875 C3.44057954 17.54876696 2.71217541 20.68732563 -1 25 C-3.25 25.875 -3.25 25.875 -5 26 C-5 24.68 -5 23.36 -5 22 C-4.34 22 -3.68 22 -3 22 C-2.34 21.34 -1.68 20.68 -1 20 C-0.34 19.34 0.32 18.68 1 18 C0.67 17.67 0.34 17.34 0 17 C-0.07325168 14.13732433 -0.09238205 11.299281 -0.0625 8.4375 C-0.05798828 7.63119141 -0.05347656 6.82488281 -0.04882812 5.99414062 C-0.03700518 3.99606244 -0.01906914 1.99802217 0 0 Z " fill="#1EA39E" transform="translate(216,190)"/>
<path d="M0 0 C2.35694954 0.09031574 4.71153582 0.24688128 7.0625 0.4375 C8.35285156 0.53933594 9.64320313 0.64117187 10.97265625 0.74609375 C12.47119141 0.87177734 12.47119141 0.87177734 14 1 C14.49230769 8.38461538 14.49230769 8.38461538 12 11.5 C11.34 11.995 10.68 12.49 10 13 C10 10.36 10 7.72 10 5 C9.38511719 4.93941406 8.77023438 4.87882812 8.13671875 4.81640625 C6.92435547 4.69072266 6.92435547 4.69072266 5.6875 4.5625 C4.88699219 4.48128906 4.08648437 4.40007813 3.26171875 4.31640625 C1 4 1 4 -2 3 C-1 1 -1 1 0 0 Z " fill="#319E76" transform="translate(119,56)"/>
<path d="M0 0 C0.66 0.33 1.32 0.66 2 1 C0.515 2.2065625 0.515 2.2065625 -1 3.4375 C-2.485 4.7059375 -2.485 4.7059375 -4 6 C-4 6.33 -4 6.66 -4 7 C-2.35 7 -0.7 7 1 7 C1.33 6.34 1.66 5.68 2 5 C2.33 5.99 2.66 6.98 3 8 C1.56640625 10.04296875 1.56640625 10.04296875 -0.4375 12.1875 C-1.42556641 13.26064453 -1.42556641 13.26064453 -2.43359375 14.35546875 C-2.95050781 14.89816406 -3.46742187 15.44085938 -4 16 C-4.144375 15.360625 -4.28875 14.72125 -4.4375 14.0625 C-4.81007181 12.02454854 -4.81007181 12.02454854 -6 11 C-6.99 11.66 -7.98 12.32 -9 13 C-9.99 12.67 -10.98 12.34 -12 12 C-8.27653164 7.57905197 -4.70478962 3.42166518 0 0 Z " fill="#44A07F" transform="translate(104,43)"/>
<path d="M0 0 C-3 6 -3 6 -5.875 7.1875 C-9 8 -9 8 -12 7 C-12.0825 7.598125 -12.165 8.19625 -12.25 8.8125 C-13.23275289 11.6788626 -14.35827876 12.56592275 -17 14 C-19.25 13.6875 -19.25 13.6875 -21 13 C-21 12.34 -21 11.68 -21 11 C-19.28759766 9.76318359 -19.28759766 9.76318359 -16.9140625 8.3984375 C-16.06585938 7.90859375 -15.21765625 7.41875 -14.34375 6.9140625 C-12.99796875 6.15222656 -12.99796875 6.15222656 -11.625 5.375 C-10.73554688 4.859375 -9.84609375 4.34375 -8.9296875 3.8125 C-2.27294147 0 -2.27294147 0 0 0 Z " fill="#32A39C" transform="translate(194,120)"/>
<path d="M0 0 C0.66 0.33 1.32 0.66 2 1 C2.33 1.99 2.66 2.98 3 4 C8.79725872 9.17612386 14.8909934 9.37324571 22.3125 9.625 C23.24384766 9.66367188 24.17519531 9.70234375 25.13476562 9.7421875 C27.42298407 9.83606313 29.71120295 9.92174509 32 10 C32 10.33 32 10.66 32 11 C22.65898977 13.1380924 13.50307638 13.30994931 5.06640625 8.4453125 C2.32472138 6.52768792 0.17626971 4.53898132 -2 2 C-1.34 1.34 -0.68 0.68 0 0 Z " fill="#499F82" transform="translate(99,91)"/>
<path d="M0 0 C0 1.98 0 3.96 0 6 C-1.65 6.33 -3.3 6.66 -5 7 C-4.34 6.67 -3.68 6.34 -3 6 C-3 5.01 -3 4.02 -3 3 C-4.27617187 3.25716797 -4.27617187 3.25716797 -5.578125 3.51953125 C-9.10429822 4.01464461 -12.204677 3.96115972 -15.75 3.6875 C-16.87921875 3.60886719 -18.0084375 3.53023438 -19.171875 3.44921875 C-22 3 -22 3 -24 1 C-20.75008318 0.83168475 -17.50005436 0.66563638 -14.25 0.5 C-13.32960938 0.45230469 -12.40921875 0.40460938 -11.4609375 0.35546875 C-10.12675781 0.28779297 -10.12675781 0.28779297 -8.765625 0.21875 C-7.94868164 0.17685547 -7.13173828 0.13496094 -6.29003906 0.09179688 C-4.19481876 0.00780937 -2.09690296 0 0 0 Z " fill="#469B7C" transform="translate(137,94)"/>
<path d="M0 0 C0.33 0.66 0.66 1.32 1 2 C0.34 2 -0.32 2 -1 2 C-1.33 2.99 -1.66 3.98 -2 5 C-4.1171875 6.453125 -4.1171875 6.453125 -7 8 C-8.13695313 8.61359375 -9.27390625 9.2271875 -10.4453125 9.859375 C-11.67074751 10.49177294 -12.8973308 11.12195028 -14.125 11.75 C-14.74503906 12.07871094 -15.36507812 12.40742188 -16.00390625 12.74609375 C-17.63166656 13.57572643 -19.31416068 14.29584107 -21 15 C-21.99 14.67 -22.98 14.34 -24 14 C-7.85106383 4.23404255 -7.85106383 4.23404255 0 0 Z " fill="#34B5AB" transform="translate(94,176)"/>
<path d="M0 0 C0.99 0 1.98 0 3 0 C3.14978835 12.69872368 2.70199948 25.32106794 2 38 C1.67 38 1.34 38 1 38 C0.25863082 25.31729149 -0.13809004 12.70428397 0 0 Z " fill="#32948C" transform="translate(218,168)"/>
<path d="M0 0 C-0.33 1.32 -0.66 2.64 -1 4 C-2.65 4 -4.3 4 -6 4 C-6.0825 4.78375 -6.165 5.5675 -6.25 6.375 C-7 9 -7 9 -8.8125 10.375 C-11.30534286 11.08724082 -12.58716168 10.86172797 -15 10 C-14.67 9.34 -14.34 8.68 -14 8 C-13.34 8 -12.68 8 -12 8 C-12 7.01 -12 6.02 -12 5 C-10.56705502 4.15885829 -9.12845595 3.32734313 -7.6875 2.5 C-6.88699219 2.0359375 -6.08648437 1.571875 -5.26171875 1.09375 C-3 0 -3 0 0 0 Z " fill="#23A39B" transform="translate(134,155)"/>
<path d="M0 0 C0.33 0 0.66 0 1 0 C1.33 5.28 1.66 10.56 2 16 C2.66 16 3.32 16 4 16 C4.33 15.34 4.66 14.68 5 14 C5 17 5 17 2.5 19.6875 C1.2625 20.8321875 1.2625 20.8321875 0 22 C-0.99 21.67 -1.98 21.34 -3 21 C-1.68 20.67 -0.36 20.34 1 20 C0.34 19.01 -0.32 18.02 -1 17 C-2.97747122 16.63702064 -2.97747122 16.63702064 -5.125 16.8125 C-6.40375 16.874375 -7.6825 16.93625 -9 17 C-9 16.67 -9 16.34 -9 16 C-6.36 15.67 -3.72 15.34 -1 15 C-0.67 10.05 -0.34 5.1 0 0 Z " fill="#4DA485" transform="translate(144,63)"/>
<path d="M0 0 C1.44268543 2.88537086 1.02257965 5.53108551 0.9375 8.7109375 C0.99896159 10.96196841 1.37035063 12.84541855 2 15 C2.94875 14.649375 3.8975 14.29875 4.875 13.9375 C8 13 8 13 10 14 C11.32 12.68 12.64 11.36 14 10 C13.64393309 12.58148508 13.16671807 13.82045747 11.375 15.75 C8.04682754 17.50166972 5.70202957 17.4711674 2 17 C-0.38866964 14.69369828 -0.96253405 13.34031573 -1.328125 10.01953125 C-1.30234375 8.96121094 -1.2765625 7.90289062 -1.25 6.8125 C-1.23453125 5.74644531 -1.2190625 4.68039063 -1.203125 3.58203125 C-1 1 -1 1 0 0 Z " fill="#CCF0E7" transform="translate(113,64)"/>
<path d="M0 0 C-0.90621094 0.50789062 -1.81242187 1.01578125 -2.74609375 1.5390625 C-9.67789642 5.44784488 -16.46897217 9.43864723 -23 14 C-25 13 -25 13 -26 10 C-25.00419922 9.74476563 -25.00419922 9.74476563 -23.98828125 9.484375 C-18.76577339 8.05104438 -15.08604309 6.70297655 -11 3 C-10.34 3 -9.68 3 -9 3 C-9 2.34 -9 1.68 -9 1 C-3.375 -1.125 -3.375 -1.125 0 0 Z " fill="#77DFC9" transform="translate(54,200)"/>
<path d="M0 0 C-0.64324219 0.3403125 -1.28648438 0.680625 -1.94921875 1.03125 C-8.59171061 4.59412723 -14.98822199 8.4229614 -21.34765625 12.4609375 C-24 14 -24 14 -26 14 C-26 13.34 -26 12.68 -26 12 C-24.54462432 11.16151196 -23.08559627 10.32936066 -21.625 9.5 C-20.81289062 9.0359375 -20.00078125 8.571875 -19.1640625 8.09375 C-17 7 -17 7 -15 7 C-15 6.34 -15 5.68 -15 5 C-14.01 5 -13.02 5 -12 5 C-11.67 4.01 -11.34 3.02 -11 2 C-6.91575792 -0.1577128 -4.43765317 -1.44982929 0 0 Z " fill="#73DEC9" transform="translate(96,176)"/>
<path d="M0 0 C0.33 0 0.66 0 1 0 C1 8.91 1 17.82 1 27 C2.65 27.33 4.3 27.66 6 28 C6 28.33 6 28.66 6 29 C4.02 29.33 2.04 29.66 0 30 C-1.42336877 27.15326245 -1.00758837 24.85384653 -0.87890625 21.6796875 C-0.83056641 20.42285156 -0.78222656 19.16601562 -0.73242188 17.87109375 C-0.67634766 16.55238281 -0.62027344 15.23367187 -0.5625 13.875 C-0.50927587 12.53517562 -0.45653549 11.19533192 -0.40429688 9.85546875 C-0.27429992 6.57009113 -0.13932314 3.28499322 0 0 Z " fill="#92D9C5" transform="translate(32,89)"/>
<path d="M0 0 C0 0.66 0 1.32 0 2 C-1.175625 2.0928125 -1.175625 2.0928125 -2.375 2.1875 C-3.24125 2.455625 -4.1075 2.72375 -5 3 C-5.33 3.825 -5.66 4.65 -6 5.5 C-6.33 6.325 -6.66 7.15 -7 8 C-10.28928478 9.1807689 -11.65284689 9.1157177 -15 8 C-12.8782637 6.66121428 -10.75294812 5.32884524 -8.625 4 C-8.02171875 3.6184375 -7.4184375 3.236875 -6.796875 2.84375 C-2.2265625 0 -2.2265625 0 0 0 Z " fill="#32B3AB" transform="translate(47,204)"/>
<path d="M0 0 C-0.66 0 -1.32 0 -2 0 C-2 0.66 -2 1.32 -2 2 C-6.95 2 -11.9 2 -17 2 C-17.33 1.34 -17.66 0.68 -18 0 C-15.75067773 -0.1954625 -13.50049858 -0.38108226 -11.25 -0.5625 C-9.99703125 -0.66691406 -8.7440625 -0.77132812 -7.453125 -0.87890625 C-4.60547636 -0.97876723 -2.65713933 -0.90584295 0 0 Z " fill="#CCEFE7" transform="translate(130,103)"/>
<path d="M0 0 C0.66 0.33 1.32 0.66 2 1 C2.625 3.5625 2.625 3.5625 3 6 C0.36 6 -2.28 6 -5 6 C-5.33 6.66 -5.66 7.32 -6 8 C-5.65120368 4.74456771 -4.97866739 3.98126893 -2.4375 1.75 C-1.633125 1.1725 -0.82875 0.595 0 0 Z " fill="#309F76" transform="translate(105,44)"/>
<path d="M0 0 C-0.57344937 2.86724686 -0.8614515 3.8614515 -3 6 C-5.8203125 6.1953125 -5.8203125 6.1953125 -9.125 6.125 C-10.22070312 6.10695313 -11.31640625 6.08890625 -12.4453125 6.0703125 C-13.28835937 6.04710938 -14.13140625 6.02390625 -15 6 C-15 5.67 -15 5.34 -15 5 C-14.09507812 4.83564453 -14.09507812 4.83564453 -13.171875 4.66796875 C-8.76804586 3.79430587 -3.84756477 0 0 0 Z " fill="#CEEFE5" transform="translate(150,81)"/>
<path d="M0 0 C2.31 0.33 4.62 0.66 7 1 C7 2.32 7 3.64 7 5 C8.32 5 9.64 5 11 5 C11 5.66 11 6.32 11 7 C8 8 8 8 5.5 6.875 C2.78491695 4.83868771 1.53807831 2.99520512 0 0 Z " fill="#89D4BE" transform="translate(17,209)"/>
<path d="M0 0 C-7.92 3.96 -7.92 3.96 -16 8 C-15.67 7.01 -15.34 6.02 -15 5 C-12.9375 4.3125 -12.9375 4.3125 -11 4 C-11 3.34 -11 2.68 -11 2 C-4.5 -1.125 -4.5 -1.125 0 0 Z " fill="#74DFCA" transform="translate(112,167)"/>
<path d="M0 0 C-1.92989218 1.19982444 -3.86919228 2.38452818 -5.8125 3.5625 C-7.43091797 4.55443359 -7.43091797 4.55443359 -9.08203125 5.56640625 C-12 7 -12 7 -15 6 C-14.67 5.34 -14.34 4.68 -14 4 C-12.68 4 -11.36 4 -10 4 C-10 3.34 -10 2.68 -10 2 C-8.68 2 -7.36 2 -6 2 C-6 1.34 -6 0.68 -6 0 C-3.50907189 -1.24546405 -2.58919267 -0.7767578 0 0 Z " fill="#CAEFF1" transform="translate(192,121)"/>
<path d="M0 0 C-0.495 0.433125 -0.99 0.86625 -1.5 1.3125 C-3.33218192 2.99740483 -3.33218192 2.99740483 -3 6 C-5.31 6 -7.62 6 -10 6 C-9.375 3.625 -9.375 3.625 -8 1 C-2.7826087 -1.39130435 -2.7826087 -1.39130435 0 0 Z " fill="#21A297" transform="translate(210,113)"/>
<path d="M0 0 C3.52509354 1.9583853 6.42349342 3.87138487 9 7 C9.75 9.75 9.75 9.75 10 12 C7 10 7 10 6 7 C4.989375 6.34 3.97875 5.68 2.9375 5 C1.968125 4.34 0.99875 3.68 0 3 C0 2.01 0 1.02 0 0 Z " fill="#CAEDE3" transform="translate(134,49)"/>
<path d="M0 0 C3.4375 0.8125 3.4375 0.8125 7 2 C7.33 2.99 7.66 3.98 8 5 C8.99 5.33 9.98 5.66 11 6 C9.02 6.33 7.04 6.66 5 7 C5 6.01 5 5.02 5 4 C4.34 4 3.68 4 3 4 C3 3.34 3 2.68 3 2 C2.01 1.67 1.02 1.34 0 1 C0 0.67 0 0.34 0 0 Z " fill="#94DDC7" transform="translate(41,120)"/>
<path d="M0 0 C0.763125 0.103125 1.52625 0.20625 2.3125 0.3125 C2.3125 0.9725 2.3125 1.6325 2.3125 2.3125 C1.6525 2.3125 0.9925 2.3125 0.3125 2.3125 C0.3125 3.3025 0.3125 4.2925 0.3125 5.3125 C-0.326875 5.43625 -0.96625 5.56 -1.625 5.6875 C-2.6459375 5.996875 -2.6459375 5.996875 -3.6875 6.3125 C-4.0175 6.9725 -4.3475 7.6325 -4.6875 8.3125 C-5.6875 5.3125 -5.6875 5.3125 -4.5625 2.625 C-2.6875 0.3125 -2.6875 0.3125 0 0 Z " fill="#2DA075" transform="translate(98.6875,52.6875)"/>
<path d="M0 0 C0.33 0.66 0.66 1.32 1 2 C-2.44615385 7.78461538 -2.44615385 7.78461538 -5.25 8.875 C-5.8275 8.91625 -6.405 8.9575 -7 9 C-7 7.68 -7 6.36 -7 5 C-6.34 5 -5.68 5 -5 5 C-4.34 4.34 -3.68 3.68 -3 3 C-2 2 -1 1 0 0 Z " fill="#26998F" transform="translate(218,207)"/>
<path d="M0 0 C-0.74324341 2.39489543 -1.47057354 3.70777616 -3.69140625 4.93359375 C-5.44073501 5.67219923 -7.21934149 6.34049685 -9 7 C-9.66 6.34 -10.32 5.68 -11 5 C-9.54462432 4.16151196 -8.08559627 3.32936066 -6.625 2.5 C-5.81289062 2.0359375 -5.00078125 1.571875 -4.1640625 1.09375 C-2 0 -2 0 0 0 Z " fill="#31B6A9" transform="translate(112,167)"/>
<path d="M0 0 C0 0.66 0 1.32 0 2 C-0.66 2.66 -1.32 3.32 -2 4 C-1.67 4.99 -1.34 5.98 -1 7 C-3.31 6.34 -5.62 5.68 -8 5 C-3.22727273 0 -3.22727273 0 0 0 Z " fill="#37B3AC" transform="translate(122,161)"/>
<path d="M0 0 C-4.455 2.97 -4.455 2.97 -9 6 C-11 5 -11 5 -12 2 C-10.37787941 1.47026689 -8.75218416 0.95146893 -7.125 0.4375 C-6.22007813 0.14746094 -5.31515625 -0.14257812 -4.3828125 -0.44140625 C-2 -1 -2 -1 0 0 Z " fill="#6FD8C6" transform="translate(40,208)"/>
<path d="M0 0 C-7.51479821 5.07802691 -7.51479821 5.07802691 -11.15625 4.88671875 C-13.0625 4.3125 -13.0625 4.3125 -16 3 C-12.61981469 1.95994298 -9.5219721 1.91995518 -6 2 C-6 1.34 -6 0.68 -6 0 C-3.50907189 -1.24546405 -2.58919267 -0.7767578 0 0 Z " fill="#CAF2F0" transform="translate(129,157)"/>
<path d="M0 0 C-0.33 1.32 -0.66 2.64 -1 4 C-2.65 4 -4.3 4 -6 4 C-6 4.66 -6 5.32 -6 6 C-7.32 5.34 -8.64 4.68 -10 4 C-3.375 0 -3.375 0 0 0 Z " fill="#35A49A" transform="translate(134,155)"/>
<path d="M0 0 C0.66 0.33 1.32 0.66 2 1 C-0.51830747 4.12270126 -1.7261549 4.94523098 -5.75 5.75 C-7.35875 5.87375 -7.35875 5.87375 -9 6 C-3.30379747 1.25316456 -3.30379747 1.25316456 0 0 Z " fill="#39A29A" transform="translate(152,143)"/>
<path d="M0 0 C0.66 0.33 1.32 0.66 2 1 C1.34 2.32 0.68 3.64 0 5 C-0.66 5 -1.32 5 -2 5 C-2 6.65 -2 8.3 -2 10 C-2.66 10 -3.32 10 -4 10 C-3.5205537 5.78087253 -2.83374881 3.20336822 0 0 Z " fill="#4EBB99" transform="translate(19,94)"/>
<path d="M0 0 C2.0625 0.4375 2.0625 0.4375 4 1 C4 2.65 4 4.3 4 6 C2.68 5.67 1.36 5.34 0 5 C-0.5625 3.0625 -0.5625 3.0625 -1 1 C-0.67 0.67 -0.34 0.34 0 0 Z " fill="#2EA075" transform="translate(101,90)"/>
<path d="M0 0 C1.65 0 3.3 0 5 0 C5 0.66 5 1.32 5 2 C5.99 2 6.98 2 8 2 C7.67 2.66 7.34 3.32 7 4 C2.25 3.125 2.25 3.125 0 2 C0 1.34 0 0.68 0 0 Z " fill="#91DAC4" transform="translate(60,132)"/>
<path d="M0 0 C0.33 0.66 0.66 1.32 1 2 C1.66 2.33 2.32 2.66 3 3 C5 6 5 6 4.625 8.1875 C4.41875 8.785625 4.2125 9.38375 4 10 C0 3.375 0 3.375 0 0 Z " fill="#489D7F" transform="translate(90,80)"/>
<path d="M0 0 C1.53166168 4.08443115 0.63081652 7.79455657 0 12 C-0.33 12 -0.66 12 -1 12 C-1.06058594 11.37351562 -1.12117188 10.74703125 -1.18359375 10.1015625 C-1.26738281 9.28429687 -1.35117188 8.46703125 -1.4375 7.625 C-1.51871094 6.81289062 -1.59992188 6.00078125 -1.68359375 5.1640625 C-1.89090114 2.95727195 -1.89090114 2.95727195 -3 1 C-2.01 0.67 -1.02 0.34 0 0 Z " fill="#50AA88" transform="translate(129,60)"/>
<path d="M0 0 C1.65 0 3.3 0 5 0 C4.38722388 2.96175123 3.74627478 4.38058783 2 7 C2 5.35 2 3.7 2 2 C1.34 2 0.68 2 0 2 C0 1.34 0 0.68 0 0 Z " fill="#2BA074" transform="translate(143,54)"/>
</svg>
